<svg width="24" height="24" viewBox="0 0 24 24" fill="none" xmlns="http://www.w3.org/2000/svg">
<path d="M9.86982 5.66998L6.44982 7.74999L4.88982 5.19C4.31982 4.25 4.61982 3.01 5.55982 2.44C6.49982 1.87 7.73982 2.16998 8.30982 3.10998L9.86982 5.66998Z" stroke="#002536" stroke-width="2" stroke-linecap="round" stroke-linejoin="round"/>
<path d="M11.8201 9.15997L8.66012 11.08C6.82012 12.2 6.26011 14.46 7.15011 16.26L9.20011 20.44C9.86011 21.79 11.4601 22.26 12.7401 21.47L19.1701 17.56C20.4601 16.78 20.7701 15.15 19.8801 13.94L17.1101 10.2C15.9101 8.58001 13.6601 8.03997 11.8201 9.15997Z" stroke="#002536" stroke-width="2" stroke-linecap="round" stroke-linejoin="round"/>
<path d="M10.7564 5.09791L5.63184 8.21851L7.71224 11.6349L12.8368 8.51431L10.7564 5.09791Z" stroke="#002536" stroke-width="2" stroke-linecap="round" stroke-linejoin="round"/>
<path d="M14.3101 16.8099L15.9601 19.52" stroke="#002536" stroke-width="2" stroke-linecap="round" stroke-linejoin="round"/>
<path d="M11.75 18.37L13.4 21.08" stroke="#002536" stroke-width="2" stroke-linecap="round" stroke-linejoin="round"/>
<path d="M16.8696 15.25L18.5196 17.96" stroke="#002536" stroke-width="2" stroke-linecap="round" stroke-linejoin="round"/>
</svg>
