<svg width="370" height="136" viewBox="0 0 370 136" fill="none" xmlns="http://www.w3.org/2000/svg">
<rect x="1.5" y="1.5" width="367" height="133" rx="66.5" stroke="#60D9DF" stroke-width="3"/>
<path d="M46.328 45.2H55.608V90H46.328V45.2ZM60.6015 54.16H69.7535V59.664C70.2228 58.512 70.9055 57.4453 71.8015 56.464C72.7402 55.4827 73.9562 54.6933 75.4495 54.096C76.9855 53.456 78.8628 53.136 81.0815 53.136C83.3855 53.136 85.4335 53.6053 87.2255 54.544C89.0175 55.4827 90.4255 57.04 91.4495 59.216C92.4735 61.3493 92.9855 64.2507 92.9855 67.92V90H83.8335V68.752C83.8335 67.344 83.7268 66.064 83.5135 64.912C83.3002 63.7173 82.8095 62.7787 82.0415 62.096C81.3162 61.4133 80.1428 61.072 78.5215 61.072C77.2415 61.072 75.9188 61.4347 74.5535 62.16C73.1882 62.8853 72.0362 64.08 71.0975 65.744C70.2015 67.3653 69.7535 69.6053 69.7535 72.464V90H60.6015V54.16ZM95.534 54.16H114.414V61.968H95.534V54.16ZM99.63 45.2H108.782V78.992C108.782 80.0587 109.059 80.8693 109.614 81.424C110.211 81.936 111.086 82.192 112.238 82.192H115.438V90H112.174C107.993 90 104.857 89.0827 102.766 87.248C100.675 85.4133 99.63 82.6613 99.63 78.992V45.2ZM119.042 54.16H128.194V90H119.042V54.16ZM128.194 72.464L127.234 65.872C127.234 64.7627 127.34 63.4827 127.554 62.032C127.767 60.5813 128.258 59.1947 129.026 57.872C129.836 56.5067 131.074 55.376 132.738 54.48C134.402 53.584 136.663 53.136 139.522 53.136V62.096C137.004 62.096 134.892 62.3733 133.186 62.928C131.522 63.4827 130.263 64.5067 129.41 66C128.599 67.4507 128.194 69.6053 128.194 72.464ZM157.596 91.024C153.927 91.024 150.706 90.2347 147.932 88.656C145.202 87.0347 143.068 84.7947 141.532 81.936C140.039 79.0773 139.292 75.8133 139.292 72.144C139.292 68.432 140.039 65.1467 141.532 62.288C143.068 59.4293 145.202 57.1893 147.932 55.568C150.706 53.9467 153.927 53.136 157.596 53.136C161.308 53.136 164.53 53.9467 167.26 55.568C169.991 57.1893 172.103 59.4293 173.597 62.288C175.132 65.1467 175.9 68.432 175.9 72.144C175.9 75.8133 175.132 79.0773 173.597 81.936C172.103 84.7947 169.991 87.0347 167.26 88.656C164.53 90.2347 161.308 91.024 157.596 91.024ZM157.596 82.832C159.687 82.832 161.372 82.3627 162.652 81.424C163.975 80.4427 164.956 79.1413 165.596 77.52C166.236 75.8987 166.556 74.1067 166.556 72.144C166.556 70.1387 166.236 68.3253 165.596 66.704C164.956 65.04 163.975 63.7387 162.652 62.8C161.372 61.8187 159.687 61.328 157.596 61.328C155.548 61.328 153.863 61.8187 152.54 62.8C151.218 63.7387 150.236 65.04 149.596 66.704C148.956 68.3253 148.636 70.1387 148.636 72.144C148.636 74.1067 148.956 75.8987 149.596 77.52C150.236 79.1413 151.218 80.4427 152.54 81.424C153.863 82.3627 155.548 82.832 157.596 82.832ZM193.953 91.024C190.582 91.024 187.681 90.2347 185.249 88.656C182.86 87.0347 181.025 84.7947 179.745 81.936C178.465 79.0773 177.825 75.8133 177.825 72.144C177.825 68.432 178.465 65.1467 179.745 62.288C181.025 59.4293 182.86 57.1893 185.249 55.568C187.681 53.9467 190.582 53.136 193.953 53.136C196.342 53.136 198.369 53.5627 200.033 54.416C201.74 55.2693 203.126 56.5067 204.193 58.128V86.096C203.169 87.632 201.825 88.848 200.161 89.744C198.54 90.5973 196.47 91.024 193.953 91.024ZM195.553 82.832C197.516 82.832 199.137 82.3627 200.417 81.424C201.697 80.4427 202.636 79.1413 203.233 77.52C203.873 75.8987 204.193 74.1067 204.193 72.144C204.193 70.1387 203.873 68.3253 203.233 66.704C202.636 65.04 201.697 63.7387 200.417 62.8C199.137 61.8187 197.516 61.328 195.553 61.328C193.718 61.328 192.161 61.8187 190.881 62.8C189.644 63.7387 188.705 65.04 188.065 66.704C187.468 68.3253 187.169 70.1387 187.169 72.144C187.169 74.1067 187.468 75.8987 188.065 77.52C188.705 79.1413 189.644 80.4427 190.881 81.424C192.161 82.3627 193.718 82.832 195.553 82.832ZM204.193 90V42H213.345V90H204.193ZM250.333 90H241.181V54.16H250.333V90ZM241.181 71.696L242.205 79.056C242.205 80.1653 242.034 81.4027 241.693 82.768C241.394 84.1333 240.797 85.456 239.901 86.736C239.047 87.9733 237.81 88.9973 236.189 89.808C234.567 90.6187 232.455 91.024 229.853 91.024C227.549 91.024 225.501 90.5547 223.709 89.616C221.917 88.6773 220.509 87.12 219.485 84.944C218.461 82.768 217.949 79.8667 217.949 76.24V54.16H227.037V75.408C227.037 76.816 227.143 78.096 227.357 79.248C227.57 80.4 228.061 81.3387 228.829 82.064C229.597 82.7467 230.791 83.088 232.413 83.088C233.693 83.088 235.015 82.7253 236.381 82C237.746 81.2747 238.877 80.08 239.773 78.416C240.711 76.752 241.181 74.512 241.181 71.696ZM288.713 74.96C288.713 78.032 288.009 80.784 286.601 83.216C285.193 85.648 283.231 87.568 280.713 88.976C278.196 90.3413 275.252 91.024 271.881 91.024C268.212 91.024 264.991 90.2347 262.217 88.656C259.487 87.0347 257.353 84.7947 255.817 81.936C254.324 79.0773 253.577 75.8133 253.577 72.144C253.577 68.432 254.324 65.1467 255.817 62.288C257.353 59.4293 259.487 57.1893 262.217 55.568C264.991 53.9467 268.212 53.136 271.881 53.136C275.124 53.136 278.004 53.8613 280.521 55.312C283.039 56.72 285.001 58.576 286.409 60.88C287.86 63.1413 288.585 65.5947 288.585 68.24H278.921C278.921 67.088 278.687 66 278.217 64.976C277.748 63.952 277.001 63.12 275.977 62.48C274.953 61.7973 273.588 61.456 271.881 61.456C269.705 61.456 267.956 61.9253 266.633 62.864C265.311 63.8027 264.351 65.0827 263.753 66.704C263.199 68.3253 262.921 70.1387 262.921 72.144C262.921 74.1067 263.199 75.8987 263.753 77.52C264.351 79.0987 265.311 80.3573 266.633 81.296C267.956 82.2347 269.705 82.704 271.881 82.704C273.588 82.704 274.975 82.3413 276.041 81.616C277.108 80.8907 277.897 79.952 278.409 78.8C278.921 77.6053 279.177 76.3253 279.177 74.96H288.713ZM308.789 91.024C305.12 91.024 301.898 90.2347 299.125 88.656C296.394 87.0347 294.261 84.7947 292.725 81.936C291.232 79.0773 290.485 75.8133 290.485 72.144C290.485 68.432 291.232 65.1467 292.725 62.288C294.261 59.4293 296.394 57.1893 299.125 55.568C301.898 53.9467 305.12 53.136 308.789 53.136C311.221 53.136 313.525 53.6267 315.701 54.608C317.877 55.5893 319.754 57.0187 321.333 58.896C322.912 60.7733 324.064 63.0773 324.789 65.808C325.514 68.5387 325.621 71.6533 325.109 75.152H295.669V67.728H318.901L315.957 69.456C316.17 68.2187 316.042 66.9813 315.573 65.744C315.146 64.464 314.378 63.4187 313.269 62.608C312.16 61.7547 310.666 61.328 308.789 61.328C306.613 61.328 304.864 61.8187 303.541 62.8C302.218 63.7387 301.258 65.04 300.661 66.704C300.106 68.3253 299.829 70.1387 299.829 72.144C299.829 74.1067 300.106 75.8987 300.661 77.52C301.258 79.1413 302.218 80.4427 303.541 81.424C304.864 82.3627 306.613 82.832 308.789 82.832C310.538 82.832 311.989 82.4267 313.141 81.616C314.293 80.8053 315.104 79.8027 315.573 78.608H325.237C324.725 81.0827 323.722 83.2587 322.229 85.136C320.736 86.9707 318.837 88.4213 316.533 89.488C314.272 90.512 311.69 91.024 308.789 91.024Z" fill="white"/>
</svg>
