<svg width="347" height="102" viewBox="0 0 347 102" fill="none" xmlns="http://www.w3.org/2000/svg">
<rect x="7.47536" width="342" height="56" rx="28" transform="rotate(7.67123 7.47536 0)" fill="white"/>
<circle cx="31.4872" cy="31.4871" r="20" transform="rotate(7.67123 31.4872 31.4871)" fill="#1199FA"/>
<path d="M71.067 34.4268C71.4517 34.0428 71.8775 33.7581 72.3444 33.5727C72.8173 33.3882 73.3154 33.3312 73.8386 33.4017C74.6652 33.513 75.3065 33.8082 75.7626 34.2874C76.2255 34.7614 76.5258 35.3861 76.6635 36.1614C76.808 36.9316 76.813 37.8162 76.6784 38.8152C76.5495 39.7725 76.2918 40.6066 75.9055 41.3174C75.5191 42.0282 75.0177 42.56 74.401 42.9129C73.7904 43.2665 73.0777 43.3885 72.2631 43.2787C71.2106 43.137 70.4365 42.6362 69.9408 41.7763L69.7089 42.6895L67.9517 42.4528L69.7298 29.252L71.7578 29.2982L71.067 34.4268ZM71.969 41.6862C72.6469 41.7775 73.2074 41.5715 73.6506 41.0682C74.0997 40.5656 74.4039 39.7227 74.5633 38.5394C74.6714 37.7366 74.6848 37.0755 74.6034 36.556C74.5228 36.0305 74.3525 35.6322 74.0924 35.3611C73.8382 35.0907 73.503 34.9275 73.0867 34.8714C72.6407 34.8114 72.2303 34.8923 71.8553 35.1142C71.4803 35.3362 71.1495 35.6125 70.8627 35.9432L70.2693 40.3494C70.4436 40.7179 70.6722 41.0212 70.955 41.259C71.2445 41.4918 71.5825 41.6342 71.969 41.6862ZM86.1573 42.553C86.1076 42.9216 86.1277 43.1998 86.2174 43.3874C86.308 43.5692 86.4725 43.7185 86.711 43.8353L86.0825 45.131C85.6258 45.015 85.2447 44.8335 84.9389 44.5865C84.6331 44.3395 84.4217 43.9992 84.3045 43.5657C83.9011 43.9533 83.42 44.2215 82.8612 44.3702C82.3023 44.519 81.7226 44.5529 81.122 44.472C80.1706 44.3438 79.4515 43.9745 78.9646 43.3641C78.4845 42.7485 78.3033 42.0036 78.421 41.1295C78.5548 40.1365 79.0442 39.4244 79.8893 38.9934C80.7344 38.5624 81.8765 38.4437 83.3155 38.6376L84.6623 38.819L84.7452 38.2035C84.8269 37.597 84.7015 37.1351 84.3688 36.8179C84.0421 36.5014 83.5458 36.2984 82.8798 36.2087C82.5706 36.167 82.1904 36.1582 81.7392 36.1822C81.2887 36.2002 80.8115 36.26 80.3074 36.3616L80.0066 34.8863C80.6249 34.7456 81.2234 34.6627 81.8019 34.6377C82.3812 34.6068 82.9117 34.6237 83.3933 34.6886C84.6539 34.8584 85.5558 35.2644 86.0989 35.9067C86.648 36.5497 86.8561 37.3648 86.7231 38.3519L86.1573 42.553ZM81.9268 43.082C82.3311 43.1364 82.741 43.0827 83.1563 42.9207C83.5717 42.7586 83.9243 42.5004 84.2142 42.1459L84.4941 40.0677L83.3881 39.9187C82.4486 39.7922 81.7554 39.8593 81.3087 40.1199C80.8627 40.3747 80.6028 40.7756 80.5291 41.3226C80.4618 41.8221 80.544 42.2237 80.7755 42.5273C81.0138 42.8258 81.3976 43.0107 81.9268 43.082ZM94.0731 44.5455C94.5131 44.6047 94.9334 44.5857 95.334 44.4883C95.7354 44.3849 96.125 44.2346 96.5027 44.0372L97.2573 45.4466C96.7998 45.7421 96.2618 45.9603 95.6435 46.101C95.0319 46.2366 94.414 46.2623 93.7896 46.1782C92.8263 46.0485 92.03 45.7354 91.4006 45.2389C90.7721 44.7365 90.3261 44.0922 90.0627 43.306C89.7993 42.5198 89.7336 41.6361 89.8658 40.655C89.9947 39.6977 90.291 38.8688 90.7547 38.1684C91.2251 37.4629 91.8344 36.9395 92.5826 36.5984C93.3316 36.2512 94.1908 36.143 95.16 36.2735C95.8022 36.36 96.3811 36.5349 96.8966 36.798C97.412 37.0612 97.8705 37.4105 98.272 37.846L97.1839 38.9799C96.8496 38.6746 96.4981 38.4304 96.1292 38.2476C95.7671 38.0595 95.3838 37.9383 94.9795 37.8838C94.2362 37.7837 93.5898 37.9751 93.0404 38.4581C92.497 38.9419 92.1464 39.7695 91.9886 40.9409C91.8829 41.7259 91.9046 42.3736 92.0538 42.884C92.2097 43.3894 92.4632 43.7777 92.8141 44.049C93.1658 44.3143 93.5855 44.4798 94.0731 44.5455ZM109.605 38.4734L105.229 42.1704L108.737 47.9464L106.293 47.6172L102.938 41.9163L107.277 38.1598L109.605 38.4734ZM103.909 33.6288L102.101 47.0526L100.103 46.7834L101.881 33.5827L103.909 33.6288ZM120.096 38.6697L120.408 40.4008C120.017 40.4752 119.592 40.5028 119.135 40.4835C118.683 40.4651 118.181 40.4186 117.628 40.3441C118.159 40.67 118.541 41.0483 118.773 41.4792C119.007 41.9042 119.085 42.3991 119.009 42.964C118.927 43.5765 118.704 44.1035 118.342 44.5451C117.98 44.9867 117.504 45.307 116.914 45.5061C116.324 45.7051 115.643 45.7526 114.87 45.6485C114.596 45.6116 114.36 45.5677 114.161 45.5167C113.968 45.4665 113.78 45.4018 113.597 45.3226C113.467 45.3899 113.351 45.4892 113.248 45.6207C113.152 45.7471 113.094 45.8876 113.073 46.0422C113.048 46.2324 113.103 46.4093 113.238 46.5729C113.38 46.7313 113.686 46.8421 114.156 46.9054L115.797 47.1264C116.469 47.2169 117.045 47.4126 117.525 47.7134C118.012 48.009 118.374 48.3757 118.612 48.8133C118.856 49.2458 118.945 49.7118 118.878 50.2113C118.751 51.1508 118.249 51.8248 117.37 52.2332C116.492 52.6416 115.292 52.7433 113.769 52.5382C112.693 52.3932 111.864 52.1695 111.281 51.867C110.698 51.5645 110.311 51.1794 110.12 50.7117C109.928 50.2439 109.875 49.6949 109.96 49.0646L111.753 49.3061C111.709 49.6331 111.735 49.9121 111.831 50.143C111.933 50.3747 112.152 50.5677 112.488 50.722C112.825 50.8762 113.323 50.9978 113.983 51.0867C114.643 51.1756 115.174 51.1896 115.576 51.1287C115.983 51.0746 116.286 50.955 116.487 50.7701C116.692 50.592 116.814 50.3602 116.853 50.0748C116.904 49.6942 116.777 49.3774 116.472 49.1245C116.167 48.8715 115.735 48.7074 115.176 48.6321L113.562 48.4146C112.67 48.2945 112.04 48.025 111.673 47.6062C111.312 47.1882 111.163 46.7384 111.228 46.2568C111.271 45.9357 111.402 45.6385 111.621 45.3652C111.845 45.0927 112.142 44.8693 112.51 44.6949C111.985 44.3215 111.62 43.9061 111.416 43.4487C111.218 42.9861 111.159 42.4515 111.241 41.845C111.331 41.179 111.576 40.6187 111.976 40.1641C112.376 39.7095 112.89 39.382 113.516 39.1819C114.148 38.9825 114.851 38.9348 115.624 39.039C116.379 39.1407 117.015 39.1869 117.531 39.1777C118.047 39.1625 118.503 39.1059 118.897 39.0077C119.298 38.9103 119.698 38.7976 120.096 38.6697ZM115.457 40.415C114.821 40.3293 114.317 40.4462 113.947 40.7656C113.578 41.0792 113.355 41.5243 113.277 42.1011C113.197 42.6957 113.296 43.1964 113.574 43.6032C113.859 44.0048 114.32 44.2485 114.956 44.3342C115.545 44.4135 116.017 44.3015 116.373 43.9983C116.734 43.6959 116.958 43.2265 117.044 42.5903C117.13 41.9481 117.04 41.4456 116.774 41.0828C116.508 40.7201 116.069 40.4975 115.457 40.415ZM121.523 49.6685L121.715 48.2414L123.098 48.4276L123.983 41.854L122.6 41.6678L122.791 40.2496L125.699 40.6412L125.771 42.8758C126.228 42.1322 126.743 41.59 127.315 41.2494C127.895 40.9037 128.595 40.7861 129.415 40.8966C129.695 40.9342 129.941 40.9917 130.155 41.0689C130.375 41.1409 130.591 41.2274 130.801 41.3284L129.973 42.9605C129.79 42.8813 129.617 42.8187 129.453 42.7724C129.291 42.7203 129.109 42.6806 128.906 42.6534C128.223 42.5612 127.596 42.7372 127.028 43.1814C126.466 43.6263 125.978 44.2992 125.566 45.2003L125.095 48.6967L126.995 48.9526L126.803 50.3798L121.523 49.6685ZM128.568 44.5602L128.88 42.2412L129.285 41.1242L130.801 41.3284L129.995 44.7525L128.568 44.5602ZM137.205 41.9368C138.127 42.0609 138.875 42.3706 139.45 42.8658C140.025 43.361 140.424 43.9988 140.646 44.7794C140.873 45.5608 140.92 46.451 140.785 47.45C140.652 48.443 140.368 49.2917 139.934 49.9961C139.507 50.6954 138.947 51.2102 138.255 51.5408C137.569 51.8662 136.771 51.9676 135.862 51.8451C134.952 51.7225 134.206 51.4192 133.623 50.9351C133.047 50.4458 132.643 49.8072 132.41 49.019C132.183 48.2317 132.138 47.3326 132.274 46.3217C132.406 45.3406 132.686 44.5004 133.113 43.8011C133.546 43.1027 134.109 42.5882 134.801 42.2577C135.494 41.9212 136.295 41.8142 137.205 41.9368ZM136.996 43.4887C136.277 43.3918 135.698 43.5954 135.261 44.0996C134.825 44.5978 134.528 45.4326 134.37 46.604C134.213 47.7695 134.275 48.6528 134.558 49.2538C134.846 49.8557 135.35 50.2051 136.069 50.302C136.789 50.3989 137.364 50.1949 137.796 49.6899C138.233 49.1858 138.531 48.345 138.689 47.1677C138.845 46.0081 138.782 45.1308 138.499 44.5357C138.217 43.9346 137.716 43.5856 136.996 43.4887ZM146.093 43.3882L145.206 49.9707C145.131 50.5297 145.187 50.9429 145.375 51.2104C145.569 51.4787 145.892 51.6432 146.344 51.7041C146.772 51.7618 147.203 51.6896 147.636 51.4876C148.068 51.2855 148.426 51.0158 148.707 50.6784L149.625 43.8639L151.623 44.133L150.354 53.552L148.633 53.3201L148.67 52.0991C148.256 52.5217 147.765 52.8217 147.196 52.9994C146.628 53.1711 146.064 53.2193 145.505 53.144C144.596 53.0215 143.948 52.68 143.564 52.1197C143.186 51.5542 143.056 50.8314 143.175 49.9513L144.095 43.119L146.093 43.3882ZM153.523 53.9787L154.791 44.5598L156.513 44.7916L156.5 46.034C156.957 45.6052 157.47 45.302 158.039 45.1244C158.608 44.9467 159.175 44.8959 159.74 44.972C160.62 45.0905 161.244 45.4258 161.611 45.9778C161.986 46.5247 162.113 47.2411 161.994 48.1271L161.069 54.9951L159.071 54.726L159.862 48.8481C159.936 48.301 159.963 47.8566 159.942 47.5148C159.921 47.173 159.823 46.9145 159.647 46.7394C159.477 46.5652 159.201 46.4524 158.821 46.4011C158.517 46.3603 158.22 46.3868 157.929 46.4808C157.638 46.5748 157.365 46.7136 157.11 46.8972C156.856 47.0749 156.63 47.2715 156.431 47.4869L155.521 54.2478L153.523 53.9787ZM171.557 42.7405L173.525 43.2326L171.747 56.4334L169.99 56.1968L170.003 55.018C169.622 55.4207 169.192 55.714 168.713 55.8977C168.235 56.0814 167.719 56.136 167.166 56.0616C166.357 55.9526 165.719 55.6578 165.251 55.177C164.783 54.6903 164.472 54.058 164.317 53.2803C164.168 52.4974 164.159 51.6154 164.292 50.6343C164.42 49.6769 164.684 48.8466 165.081 48.1434C165.479 47.4342 165.984 46.9028 166.594 46.5492C167.205 46.1955 167.9 46.0711 168.679 46.1761C169.172 46.2425 169.603 46.3914 169.972 46.6227C170.341 46.848 170.655 47.1475 170.913 47.5214L171.557 42.7405ZM168.999 47.7811C168.327 47.6906 167.766 47.8996 167.316 48.4081C166.867 48.9106 166.563 49.7476 166.405 50.919C166.297 51.7218 166.287 52.3863 166.373 52.9125C166.46 53.4329 166.634 53.8316 166.893 54.1087C167.153 54.3798 167.488 54.543 167.899 54.5983C168.351 54.6592 168.761 54.5812 169.129 54.3644C169.497 54.1476 169.822 53.8705 170.104 53.5331L170.704 49.0734C170.517 48.7091 170.281 48.417 169.996 48.197C169.712 47.971 169.379 47.8324 168.999 47.7811ZM175.541 52.8216L175.762 51.1804L183.13 52.1728L182.909 53.8139L175.541 52.8216ZM188.727 50.275C189.112 49.8909 189.538 49.6062 190.005 49.4208C190.477 49.2363 190.975 49.1793 191.499 49.2498C192.325 49.3611 192.967 49.6563 193.423 50.1355C193.886 50.6095 194.186 51.2342 194.324 52.0096C194.468 52.7797 194.473 53.6643 194.339 54.6633C194.21 55.6206 193.952 56.4547 193.566 57.1655C193.179 57.8763 192.678 58.4081 192.061 58.761C191.45 59.1146 190.738 59.2366 189.923 59.1268C188.871 58.9851 188.097 58.4843 187.601 57.6244L187.369 58.5376L185.612 58.3009L187.39 45.1001L189.418 45.1463L188.727 50.275ZM189.629 57.5343C190.307 57.6256 190.868 57.4196 191.311 56.9163C191.76 56.4137 192.064 55.5708 192.223 54.3875C192.332 53.5847 192.345 52.9236 192.264 52.4041C192.183 51.8786 192.013 51.4803 191.752 51.2092C191.498 50.9388 191.163 50.7756 190.747 50.7195C190.301 50.6595 189.89 50.7404 189.515 50.9623C189.14 51.1843 188.81 51.4606 188.523 51.7913L187.929 56.1975C188.104 56.566 188.332 56.8693 188.615 57.1071C188.905 57.3399 189.243 57.4823 189.629 57.5343ZM199.575 50.5918L198.688 57.1744C198.613 57.7333 198.669 58.1466 198.857 58.4141C199.051 58.6823 199.374 58.8469 199.826 58.9078C200.254 58.9655 200.685 58.8933 201.117 58.6913C201.55 58.4892 201.908 58.2195 202.189 57.8821L203.107 51.0676L205.105 51.3367L203.836 60.7556L202.115 60.5238L202.152 59.3028C201.738 59.7253 201.247 60.0254 200.678 60.2031C200.11 60.3748 199.546 60.423 198.987 60.3477C198.078 60.2252 197.43 59.8837 197.046 59.3234C196.668 58.7579 196.538 58.0351 196.657 57.155L197.577 50.3227L199.575 50.5918ZM214.939 61.7426C214.564 61.9161 214.127 62.0388 213.627 62.1107C213.127 62.1826 212.615 62.1833 212.092 62.1128C210.998 61.9655 210.203 61.5709 209.709 60.9291C209.221 60.2822 209.039 59.4949 209.164 58.5673L209.852 53.4564L207.756 53.1741L207.952 51.7202L210.048 52.0025L210.332 49.8976L212.362 49.9258L212.046 52.2717L215.222 52.6994L214.803 54.1232L211.85 53.7255L211.164 58.8185C211.096 59.324 211.17 59.7184 211.386 60.0018C211.609 60.28 212.009 60.458 212.586 60.5357C212.931 60.5821 213.255 60.5833 213.557 60.5393C213.86 60.4953 214.139 60.4239 214.394 60.3252L214.939 61.7426ZM225.635 63.1833C225.261 63.3568 224.823 63.4796 224.323 63.5515C223.823 63.6233 223.312 63.6241 222.788 63.5536C221.694 63.4062 220.9 63.0116 220.405 62.3698C219.917 61.7229 219.735 60.9356 219.86 60.008L220.549 54.8972L218.453 54.6148L218.649 53.161L220.745 53.4433L221.028 51.3383L223.059 51.3666L222.743 53.7124L225.918 54.1401L225.499 55.5639L222.547 55.1663L221.861 60.2593C221.793 60.7647 221.867 61.1591 222.083 61.4425C222.306 61.7207 222.705 61.8987 223.282 61.9764C223.627 62.0228 223.951 62.0241 224.253 61.9801C224.556 61.9361 224.835 61.8647 225.091 61.7659L225.635 63.1833ZM233.473 54.9034C234.394 55.0275 235.143 55.3372 235.718 55.8324C236.293 56.3276 236.691 56.9655 236.913 57.7461C237.141 58.5275 237.187 59.4176 237.053 60.4166C236.919 61.4097 236.635 62.2584 236.201 62.9627C235.774 63.662 235.214 64.1769 234.522 64.5074C233.836 64.8328 233.039 64.9342 232.129 64.8117C231.219 64.6892 230.473 64.3858 229.89 63.9017C229.315 63.4125 228.91 62.7738 228.677 61.9856C228.45 61.1983 228.405 60.2992 228.541 59.2883C228.673 58.3072 228.953 57.467 229.38 56.7678C229.813 56.0693 230.376 55.5548 231.068 55.2243C231.761 54.8878 232.563 54.7808 233.473 54.9034ZM233.264 56.4554C232.544 56.3585 231.966 56.5621 231.528 57.0662C231.092 57.5644 230.795 58.3992 230.637 59.5707C230.48 60.7361 230.543 61.6194 230.825 62.2205C231.113 62.8223 231.617 63.1717 232.337 63.2686C233.056 63.3655 233.632 63.1615 234.063 62.6566C234.5 62.1524 234.798 61.3117 234.957 60.1343C235.113 58.9748 235.049 58.0974 234.766 57.5023C234.484 56.9013 233.983 56.5523 233.264 56.4554ZM239.094 65.5046L240.362 56.0857L242.084 56.3175L242.071 57.5599C242.528 57.1311 243.041 56.8279 243.61 56.6503C244.179 56.4726 244.746 56.4218 245.311 56.4979C246.191 56.6164 246.815 56.9517 247.182 57.5037C247.557 58.0506 247.684 58.767 247.565 59.653L246.64 66.521L244.642 66.2519L245.433 60.374C245.507 59.8269 245.534 59.3825 245.513 59.0407C245.492 58.6989 245.394 58.4404 245.218 58.2653C245.048 58.091 244.772 57.9783 244.392 57.927C244.088 57.8862 243.791 57.9127 243.5 58.0067C243.209 58.1007 242.936 58.2395 242.681 58.4231C242.427 58.6008 242.201 58.7974 242.002 59.0128L241.092 65.7737L239.094 65.5046ZM250.416 62.9067L250.637 61.2656L258.004 62.2579L257.783 63.8991L250.416 62.9067ZM266.382 59.3361C267.215 59.4483 267.853 59.7431 268.297 60.2207C268.742 60.6923 269.028 61.315 269.154 62.0887C269.28 62.8565 269.276 63.7399 269.142 64.7388C269.013 65.6962 268.761 66.5311 268.387 67.2435C268.012 67.9558 267.526 68.4897 266.927 68.8449C266.334 69.201 265.639 69.3253 264.842 69.218C263.855 69.0851 263.105 68.6299 262.593 67.8525L261.997 72.2765L259.969 72.2304L261.755 58.9672L263.494 59.2014L263.456 60.4313C263.878 59.9917 264.341 59.6817 264.844 59.5012C265.352 59.3215 265.865 59.2664 266.382 59.3361ZM265.621 60.8047C265.176 60.7446 264.765 60.8256 264.39 61.0475C264.015 61.2694 263.684 61.5457 263.398 61.8764L262.804 66.2826C262.984 66.652 263.217 66.9497 263.501 67.1757C263.792 67.3965 264.134 67.5334 264.526 67.5862C265.198 67.6767 265.746 67.475 266.17 66.9812C266.594 66.4873 266.885 65.6487 267.045 64.4654C267.153 63.6627 267.169 63.0019 267.094 62.4832C267.025 61.9594 266.866 61.5627 266.618 61.2931C266.376 61.0244 266.044 60.8616 265.621 60.8047ZM271.272 69.8388L271.464 68.4117L272.847 68.5979L273.732 62.0243L272.35 61.8381L272.541 60.4199L275.448 60.8116L275.52 63.0461C275.977 62.3025 276.492 61.7604 277.065 61.4198C277.644 61.074 278.344 60.9564 279.165 61.0669C279.444 61.1046 279.691 61.162 279.904 61.2392C280.125 61.3112 280.34 61.3978 280.55 61.4988L279.722 63.1308C279.539 63.0517 279.366 62.989 279.203 62.9428C279.04 62.8906 278.858 62.8509 278.656 62.8237C277.972 62.7316 277.346 62.9076 276.777 63.3517C276.215 63.7966 275.728 64.4696 275.316 65.3706L274.845 68.8671L276.745 69.123L276.552 70.5501L271.272 69.8388ZM278.317 64.7305L278.629 62.4115L279.034 61.2945L280.55 61.4988L279.744 64.9228L278.317 64.7305ZM288.294 62.5418L287.223 70.498L289.783 70.8428L289.586 72.3056L282.209 71.312L282.406 69.8492L285.225 70.2289L286.099 63.7355L283.37 63.3679L283.567 61.9051L288.294 62.5418ZM287.524 57.7431C287.917 57.7959 288.216 57.9573 288.422 58.2272C288.633 58.4979 288.715 58.8116 288.667 59.1684C288.619 59.5252 288.457 59.809 288.18 60.02C287.909 60.2318 287.578 60.3112 287.185 60.2583C286.805 60.2071 286.509 60.0431 286.298 59.7665C286.087 59.4899 286.006 59.1732 286.054 58.8164C286.102 58.4596 286.264 58.1787 286.54 57.9737C286.815 57.7687 287.144 57.6918 287.524 57.7431ZM300.371 63.9142C300.728 63.9623 301.039 64.0828 301.303 64.2759C301.568 64.4689 301.754 64.7695 301.863 65.1777C301.977 65.5866 301.988 66.1389 301.894 66.8346L300.951 73.8364L299.176 73.5973L300.082 66.8721C300.148 66.3785 300.16 66.0199 300.118 65.7962C300.081 65.5734 299.92 65.4427 299.635 65.4043C299.409 65.3738 299.17 65.4143 298.919 65.5258C298.669 65.6313 298.402 65.8376 298.118 66.1445L297.151 73.3246L295.537 73.1072L296.443 66.3819C296.509 65.8884 296.521 65.5297 296.479 65.3061C296.442 65.0832 296.281 64.9525 295.996 64.9141C295.764 64.8828 295.522 64.923 295.271 65.0344C295.027 65.1408 294.763 65.3474 294.479 65.6543L293.512 72.8345L291.728 72.5942L292.997 63.1752L294.504 63.3783L294.501 64.4131C294.819 64.0745 295.151 63.8105 295.498 63.6211C295.845 63.4257 296.242 63.358 296.688 63.4181C297.044 63.4661 297.356 63.599 297.624 63.8166C297.891 64.0342 298.063 64.3752 298.14 64.8396C298.449 64.5181 298.786 64.2697 299.148 64.0946C299.512 63.9135 299.919 63.8534 300.371 63.9142ZM310.781 72.8084C310.731 73.1771 310.752 73.4553 310.841 73.6429C310.932 73.8246 311.096 73.9739 311.335 74.0908L310.706 75.3865C310.25 75.2705 309.869 75.089 309.563 74.842C309.257 74.595 309.046 74.2547 308.928 73.8212C308.525 74.2088 308.044 74.477 307.485 74.6257C306.926 74.7744 306.346 74.8084 305.746 74.7275C304.795 74.5993 304.075 74.23 303.589 73.6196C303.108 73.004 302.927 72.2591 303.045 71.385C303.179 70.392 303.668 69.6799 304.513 69.2489C305.358 68.8178 306.5 68.6992 307.939 68.893L309.286 69.0745L309.369 68.459C309.451 67.8525 309.325 67.3906 308.993 67.0734C308.666 66.7569 308.17 66.5539 307.504 66.4641C307.195 66.4225 306.814 66.4137 306.363 66.4376C305.913 66.4557 305.435 66.5155 304.931 66.6171L304.631 65.1418C305.249 65.0011 305.847 64.9182 306.426 64.8932C307.005 64.8623 307.536 64.8792 308.017 64.9441C309.278 65.1139 310.18 65.5199 310.723 66.1622C311.272 66.8052 311.48 67.6203 311.347 68.6074L310.781 72.8084ZM306.551 73.3374C306.955 73.3919 307.365 73.3381 307.78 73.1761C308.196 73.0141 308.548 72.7559 308.838 72.4014L309.118 70.3232L308.012 70.1742C307.072 70.0477 306.379 70.1147 305.933 70.3754C305.487 70.6302 305.227 71.0311 305.153 71.5781C305.086 72.0776 305.168 72.4792 305.399 72.7828C305.638 73.0813 306.021 73.2662 306.551 73.3374ZM314.058 75.6018L314.25 74.1747L315.632 74.3609L316.518 67.7873L315.135 67.601L315.326 66.1829L318.234 66.5745L318.305 68.809C318.763 68.0654 319.278 67.5233 319.85 67.1827C320.43 66.8369 321.13 66.7193 321.95 66.8299C322.23 66.8675 322.476 66.9249 322.69 67.0021C322.91 67.0742 323.126 67.1607 323.336 67.2617L322.508 68.8937C322.325 68.8146 322.151 68.7519 321.988 68.7057C321.826 68.6536 321.643 68.6139 321.441 68.5866C320.757 68.4945 320.131 68.6705 319.563 69.1146C319 69.5595 318.513 70.2325 318.101 71.1336L317.63 74.63L319.53 74.8859L319.338 76.313L314.058 75.6018ZM321.103 70.4935L321.415 68.1744L321.82 67.0575L323.336 67.2617L322.53 70.6857L321.103 70.4935ZM334.175 68.7217L329.655 77.739C329.315 78.4197 328.918 79.005 328.465 79.4948C328.011 79.9906 327.464 80.365 326.824 80.6179C326.185 80.8708 325.42 80.9766 324.529 80.9354L324.472 79.4021C325.122 79.3867 325.648 79.3061 326.049 79.1603C326.455 79.0213 326.789 78.809 327.052 78.5235C327.32 78.2388 327.571 77.8821 327.804 77.4534L327.127 77.3621L325.22 67.5155L327.343 67.8014L328.634 76.1485L332.124 68.4453L334.175 68.7217Z" fill="black"/>
</svg>
