<svg width="562" height="130" viewBox="0 0 562 130" fill="none" xmlns="http://www.w3.org/2000/svg">
<rect width="269" height="130" rx="32" fill="#0098FF"/>
<path d="M35.328 87V42.2H52.096C56.832 42.2 60.8427 43.1813 64.128 45.144C67.4133 47.064 69.9093 49.7093 71.616 53.08C73.3227 56.408 74.176 60.2267 74.176 64.536C74.176 68.888 73.3227 72.7493 71.616 76.12C69.9093 79.4907 67.4133 82.1573 64.128 84.12C60.8427 86.04 56.832 87 52.096 87H35.328ZM44.608 78.936H52.096C54.9973 78.936 57.3653 78.2747 59.2 76.952C61.0347 75.5867 62.3787 73.816 63.232 71.64C64.0853 69.464 64.512 67.096 64.512 64.536C64.512 62.0187 64.0853 59.672 63.232 57.496C62.3787 55.32 61.0347 53.5707 59.2 52.248C57.3653 50.9253 54.9973 50.264 52.096 50.264H44.608V78.936ZM94.5615 88.024C90.8922 88.024 87.6708 87.2347 84.8975 85.656C82.1668 84.0347 80.0335 81.7947 78.4975 78.936C77.0042 76.0773 76.2575 72.8133 76.2575 69.144C76.2575 65.432 77.0042 62.1467 78.4975 59.288C80.0335 56.4293 82.1668 54.1893 84.8975 52.568C87.6708 50.9467 90.8922 50.136 94.5615 50.136C96.9935 50.136 99.2975 50.6267 101.474 51.608C103.65 52.5893 105.527 54.0187 107.106 55.896C108.684 57.7733 109.836 60.0773 110.562 62.808C111.287 65.5387 111.394 68.6533 110.882 72.152H81.4415V64.728H104.674L101.73 66.456C101.943 65.2187 101.815 63.9813 101.346 62.744C100.919 61.464 100.151 60.4187 99.0415 59.608C97.9322 58.7547 96.4388 58.328 94.5615 58.328C92.3855 58.328 90.6362 58.8187 89.3135 59.8C87.9908 60.7387 87.0308 62.04 86.4335 63.704C85.8788 65.3253 85.6015 67.1387 85.6015 69.144C85.6015 71.1067 85.8788 72.8987 86.4335 74.52C87.0308 76.1413 87.9908 77.4427 89.3135 78.424C90.6362 79.3627 92.3855 79.832 94.5615 79.832C96.3108 79.832 97.7615 79.4267 98.9135 78.616C100.066 77.8053 100.876 76.8027 101.346 75.608H111.01C110.498 78.0827 109.495 80.2587 108.002 82.136C106.508 83.9707 104.61 85.4213 102.306 86.488C100.044 87.512 97.4628 88.024 94.5615 88.024ZM123.256 75.672C123.469 77.3787 124.216 78.5733 125.496 79.256C126.776 79.896 128.248 80.216 129.912 80.216C131.533 80.216 132.877 79.9387 133.944 79.384C135.011 78.7867 135.544 77.8267 135.544 76.504C135.544 75.6507 135.16 75.0107 134.392 74.584C133.624 74.1147 132.621 73.752 131.384 73.496C130.147 73.1973 128.781 72.92 127.288 72.664C125.795 72.408 124.28 72.0667 122.744 71.64C121.251 71.2133 119.885 70.616 118.648 69.848C117.411 69.08 116.408 68.0347 115.64 66.712C114.872 65.3893 114.488 63.704 114.488 61.656C114.488 59.736 115.107 57.9013 116.344 56.152C117.624 54.36 119.395 52.9093 121.656 51.8C123.917 50.6907 126.499 50.136 129.4 50.136C132.003 50.136 134.413 50.6693 136.632 51.736C138.851 52.76 140.643 54.1893 142.008 56.024C143.373 57.8587 144.056 59.992 144.056 62.424H134.904C134.733 60.7173 134.093 59.544 132.984 58.904C131.917 58.264 130.637 57.944 129.144 57.944C127.309 57.944 125.923 58.3067 124.984 59.032C124.045 59.7147 123.576 60.5893 123.576 61.656C123.576 62.5947 123.96 63.32 124.728 63.832C125.496 64.344 126.499 64.7493 127.736 65.048C128.973 65.3467 130.339 65.624 131.832 65.88C133.368 66.0933 134.883 66.4133 136.376 66.84C137.869 67.224 139.235 67.8 140.472 68.568C141.709 69.2933 142.712 70.296 143.48 71.576C144.248 72.856 144.632 74.4987 144.632 76.504C144.632 78.7653 143.992 80.7707 142.712 82.52C141.475 84.2267 139.725 85.5707 137.464 86.552C135.245 87.5333 132.621 88.024 129.592 88.024C126.776 88.024 124.195 87.4907 121.848 86.424C119.544 85.3147 117.688 83.8427 116.28 82.008C114.872 80.1307 114.125 78.0187 114.04 75.672H123.256ZM148.615 51.16H157.767V87H148.615V51.16ZM148.295 39H158.087V48.792H148.295V39ZM177.42 86.744C174.05 86.744 171.148 85.9973 168.716 84.504C166.327 83.0107 164.492 80.8987 163.212 78.168C161.932 75.3947 161.292 72.1733 161.292 68.504C161.292 64.792 161.932 61.5707 163.212 58.84C164.492 56.0667 166.327 53.9333 168.716 52.44C171.148 50.904 174.05 50.136 177.42 50.136C181.516 50.136 184.588 51.2667 186.636 53.528C188.684 55.7467 190.114 59.0107 190.924 63.32L190.796 73.816C190.327 76.4613 189.602 78.7653 188.62 80.728C187.639 82.648 186.252 84.1413 184.46 85.208C182.668 86.232 180.322 86.744 177.42 86.744ZM180.3 100.824C176.503 100.824 173.41 100.227 171.02 99.032C168.631 97.8373 166.796 96.28 165.516 94.36C164.279 92.4827 163.49 90.5413 163.148 88.536H172.556C173.026 90.2 173.964 91.288 175.372 91.8C176.78 92.3547 178.423 92.632 180.3 92.632C181.58 92.632 182.775 92.3973 183.884 91.928C184.994 91.4587 185.89 90.6693 186.572 89.56C187.298 88.4933 187.66 87 187.66 85.08H196.812C196.812 88.4507 196.066 91.3093 194.572 93.656C193.122 96.0027 191.159 97.7733 188.684 98.968C186.21 100.205 183.415 100.824 180.3 100.824ZM179.02 78.552C181.964 78.552 184.14 77.6347 185.548 75.8C186.956 73.9227 187.66 71.4907 187.66 68.504C187.66 65.4747 186.956 63.0213 185.548 61.144C184.14 59.2667 181.964 58.328 179.02 58.328C176.247 58.328 174.156 59.2667 172.748 61.144C171.34 63.0213 170.636 65.4747 170.636 68.504C170.636 71.4907 171.34 73.9227 172.748 75.8C174.156 77.6347 176.247 78.552 179.02 78.552ZM187.66 85.08V51.16H196.812V85.08H187.66ZM201.544 51.16H210.696V56.664C211.165 55.512 211.848 54.4453 212.744 53.464C213.683 52.4827 214.899 51.6933 216.392 51.096C217.928 50.456 219.805 50.136 222.024 50.136C224.328 50.136 226.376 50.6053 228.168 51.544C229.96 52.4827 231.368 54.04 232.392 56.216C233.416 58.3493 233.928 61.2507 233.928 64.92V87H224.776V65.752C224.776 64.344 224.669 63.064 224.456 61.912C224.243 60.7173 223.752 59.7787 222.984 59.096C222.259 58.4133 221.085 58.072 219.464 58.072C218.184 58.072 216.861 58.4347 215.496 59.16C214.131 59.8853 212.979 61.08 212.04 62.744C211.144 64.3653 210.696 66.6053 210.696 69.464V87H201.544V51.16Z" fill="white"/>
<rect x="293" width="269" height="130" rx="65" fill="white"/>
<path d="M326.344 51.16H345.224V58.968H326.344V51.16ZM330.44 42.2H339.592V75.992C339.592 77.0587 339.869 77.8693 340.424 78.424C341.021 78.936 341.896 79.192 343.048 79.192H346.248V87H342.984C338.803 87 335.667 86.0827 333.576 84.248C331.485 82.4133 330.44 79.6613 330.44 75.992V42.2ZM365.812 88.024C362.142 88.024 358.921 87.2347 356.148 85.656C353.417 84.0347 351.283 81.7947 349.747 78.936C348.254 76.0773 347.507 72.8133 347.507 69.144C347.507 65.432 348.254 62.1467 349.747 59.288C351.283 56.4293 353.417 54.1893 356.148 52.568C358.921 50.9467 362.142 50.136 365.812 50.136C369.524 50.136 372.745 50.9467 375.476 52.568C378.206 54.1893 380.318 56.4293 381.812 59.288C383.348 62.1467 384.115 65.432 384.115 69.144C384.115 72.8133 383.348 76.0773 381.812 78.936C380.318 81.7947 378.206 84.0347 375.476 85.656C372.745 87.2347 369.524 88.024 365.812 88.024ZM365.812 79.832C367.902 79.832 369.588 79.3627 370.868 78.424C372.19 77.4427 373.172 76.1413 373.812 74.52C374.452 72.8987 374.772 71.1067 374.772 69.144C374.772 67.1387 374.452 65.3253 373.812 63.704C373.172 62.04 372.19 60.7387 370.868 59.8C369.588 58.8187 367.902 58.328 365.812 58.328C363.764 58.328 362.078 58.8187 360.755 59.8C359.433 60.7387 358.451 62.04 357.811 63.704C357.171 65.3253 356.851 67.1387 356.851 69.144C356.851 71.1067 357.171 72.8987 357.811 74.52C358.451 76.1413 359.433 77.4427 360.755 78.424C362.078 79.3627 363.764 79.832 365.812 79.832ZM387.387 39H396.539V87H387.387V39ZM396.923 65.496H406.075L418.491 87H408.507L396.923 65.496ZM417.659 51.16L395.643 78.936L391.099 71.192L406.907 51.16H417.659ZM435.564 88.024C431.895 88.024 428.673 87.2347 425.9 85.656C423.169 84.0347 421.036 81.7947 419.5 78.936C418.007 76.0773 417.26 72.8133 417.26 69.144C417.26 65.432 418.007 62.1467 419.5 59.288C421.036 56.4293 423.169 54.1893 425.9 52.568C428.673 50.9467 431.895 50.136 435.564 50.136C437.996 50.136 440.3 50.6267 442.476 51.608C444.652 52.5893 446.529 54.0187 448.108 55.896C449.687 57.7733 450.839 60.0773 451.564 62.808C452.289 65.5387 452.396 68.6533 451.884 72.152H422.444V64.728H445.676L442.732 66.456C442.945 65.2187 442.817 63.9813 442.348 62.744C441.921 61.464 441.153 60.4187 440.044 59.608C438.935 58.7547 437.441 58.328 435.564 58.328C433.388 58.328 431.639 58.8187 430.316 59.8C428.993 60.7387 428.033 62.04 427.436 63.704C426.881 65.3253 426.604 67.1387 426.604 69.144C426.604 71.1067 426.881 72.8987 427.436 74.52C428.033 76.1413 428.993 77.4427 430.316 78.424C431.639 79.3627 433.388 79.832 435.564 79.832C437.313 79.832 438.764 79.4267 439.916 78.616C441.068 77.8053 441.879 76.8027 442.348 75.608H452.012C451.5 78.0827 450.497 80.2587 449.004 82.136C447.511 83.9707 445.612 85.4213 443.308 86.488C441.047 87.512 438.465 88.024 435.564 88.024ZM455.574 51.16H464.726V56.664C465.195 55.512 465.878 54.4453 466.774 53.464C467.713 52.4827 468.929 51.6933 470.422 51.096C471.958 50.456 473.835 50.136 476.054 50.136C478.358 50.136 480.406 50.6053 482.198 51.544C483.99 52.4827 485.398 54.04 486.422 56.216C487.446 58.3493 487.958 61.2507 487.958 64.92V87H478.806V65.752C478.806 64.344 478.699 63.064 478.486 61.912C478.273 60.7173 477.782 59.7787 477.014 59.096C476.289 58.4133 475.115 58.072 473.494 58.072C472.214 58.072 470.891 58.4347 469.526 59.16C468.161 59.8853 467.009 61.08 466.07 62.744C465.174 64.3653 464.726 66.6053 464.726 69.464V87H455.574V51.16ZM500.291 75.672C500.504 77.3787 501.251 78.5733 502.531 79.256C503.811 79.896 505.283 80.216 506.947 80.216C508.568 80.216 509.912 79.9387 510.979 79.384C512.046 78.7867 512.579 77.8267 512.579 76.504C512.579 75.6507 512.195 75.0107 511.427 74.584C510.659 74.1147 509.656 73.752 508.419 73.496C507.182 73.1973 505.816 72.92 504.323 72.664C502.83 72.408 501.315 72.0667 499.779 71.64C498.286 71.2133 496.92 70.616 495.683 69.848C494.446 69.08 493.443 68.0347 492.675 66.712C491.907 65.3893 491.523 63.704 491.523 61.656C491.523 59.736 492.142 57.9013 493.379 56.152C494.659 54.36 496.43 52.9093 498.691 51.8C500.952 50.6907 503.534 50.136 506.435 50.136C509.038 50.136 511.448 50.6693 513.667 51.736C515.886 52.76 517.678 54.1893 519.043 56.024C520.408 57.8587 521.091 59.992 521.091 62.424L511.939 62.424C511.768 60.7173 511.128 59.544 510.019 58.904C508.952 58.264 507.672 57.944 506.179 57.944C504.344 57.944 502.958 58.3067 502.019 59.032C501.08 59.7147 500.611 60.5893 500.611 61.656C500.611 62.5947 500.995 63.32 501.763 63.832C502.531 64.344 503.534 64.7493 504.771 65.048C506.008 65.3467 507.374 65.624 508.867 65.88C510.403 66.0933 511.918 66.4133 513.411 66.84C514.904 67.224 516.27 67.8 517.507 68.568C518.744 69.2933 519.747 70.296 520.515 71.576C521.283 72.856 521.667 74.4987 521.667 76.504C521.667 78.7653 521.027 80.7707 519.747 82.52C518.51 84.2267 516.76 85.5707 514.499 86.552C512.28 87.5333 509.656 88.024 506.627 88.024C503.811 88.024 501.23 87.4907 498.883 86.424C496.579 85.3147 494.723 83.8427 493.315 82.008C491.907 80.1307 491.16 78.0187 491.075 75.672H500.291Z" fill="#151D33"/>
</svg>
