<svg width="24" height="24" viewBox="0 0 24 24" fill="none" xmlns="http://www.w3.org/2000/svg">
<g clip-path="url(#clip0_7583_1148)">
<path d="M13.6205 23.7848C10.9685 23.7848 8.45653 22.7591 6.54572 20.8971C2.75943 19.188 0.386078 15.5461 0.386078 11.5421C0.386078 5.94213 4.94037 1.38773 10.5371 1.38773C13.1877 1.38773 15.6996 2.41349 17.6105 4.27543C21.3968 5.98457 23.7701 9.62642 23.7701 13.6304C23.7716 19.229 19.2172 23.7848 13.6205 23.7848Z" fill="#6D495E"></path>
<path d="M10.5386 1.77534C13.0888 1.77534 15.5045 2.76149 17.3418 4.55269C17.4069 4.61636 17.4847 4.66871 17.5681 4.70549C21.1012 6.27598 23.3841 9.77911 23.3841 13.6304C23.3841 19.0153 19.0037 23.397 13.6206 23.397C11.0704 23.397 8.65465 22.4109 6.81733 20.6197C6.75228 20.556 6.67448 20.5037 6.59106 20.4669C3.05785 18.8965 0.775035 15.3933 0.775035 11.542C0.775035 6.15713 5.15404 1.77534 10.5386 1.77534ZM10.5386 1C4.72684 1 0 5.72985 0 11.542C0 15.8375 2.58406 19.5345 6.27708 21.1758C8.17655 23.0264 10.7663 24.1724 13.622 24.1724C19.4337 24.1724 24.1606 19.444 24.1606 13.6304C24.1606 9.33486 21.5765 5.63788 17.8835 3.99666C15.9826 2.14603 13.3928 1 10.5386 1Z" fill="black"></path>
<path d="M10.5386 21.6965C4.94045 21.6965 0.387482 17.1407 0.387482 11.5421C0.387482 5.94354 4.94185 1.38773 10.5386 1.38773C16.1353 1.38773 20.6897 5.94354 20.6897 11.5421C20.6897 17.1407 16.1353 21.6965 10.5386 21.6965Z" fill="#EE9ABF"></path>
<path d="M10.5386 1.77534C15.9218 1.77534 20.3021 6.15713 20.3021 11.542C20.3021 16.927 15.9218 21.3088 10.5386 21.3088C5.15545 21.3088 0.775035 16.927 0.775035 11.542C0.775035 6.15713 5.15404 1.77534 10.5386 1.77534ZM10.5386 1C4.72684 1 0 5.72985 0 11.542C0 17.3543 4.72684 22.0841 10.5386 22.0841C16.3503 22.0841 21.0772 17.3557 21.0772 11.542C21.0772 5.72843 16.3489 1 10.5386 1Z" fill="black"></path>
<path d="M11.2374 14.3194C11.1666 14.0817 11.1214 13.8752 11.0464 13.6799C10.7946 13.0248 10.5315 12.374 10.2742 11.7217C10.2247 11.5958 10.1681 11.4727 10.1341 11.3426C10.1002 11.2081 10.1158 11.0737 10.2459 10.986C10.3619 10.9082 10.5401 10.9874 10.6376 11.1628C10.6773 11.2336 10.7126 11.3072 10.7423 11.3821C11.0775 12.2367 11.4128 13.0899 11.7409 13.9458C11.7989 14.0959 11.8399 14.2557 11.8568 14.4156C11.8752 14.5896 11.7918 14.7453 11.6235 14.8004C11.3944 14.874 11.1567 14.9405 10.9191 14.9617C10.5981 14.9914 10.2713 14.983 9.94743 14.9759C9.6773 14.9702 9.52875 14.8712 9.51038 14.7113C9.48919 14.5316 9.66596 14.41 9.98558 14.3972C10.2289 14.3873 10.4722 14.4 10.714 14.3887C10.871 14.3788 11.0266 14.3477 11.2374 14.3194Z" fill="black"></path>
<path d="M10.39 15.0523C10.2529 15.0523 10.1157 15.0494 9.98128 15.0466L9.94313 15.0452C9.51883 15.0368 9.44807 14.8131 9.43673 14.717C9.42688 14.6335 9.45088 14.5571 9.50468 14.4934C9.59381 14.3902 9.75783 14.3307 9.98128 14.3222C10.1001 14.318 10.219 14.318 10.3377 14.318C10.4622 14.318 10.5853 14.3194 10.7097 14.3137C10.8115 14.3095 10.9134 14.2925 11.0322 14.2755C11.0676 14.2698 11.1043 14.2642 11.144 14.2586C11.1298 14.209 11.1171 14.1609 11.1043 14.1143C11.0648 13.9699 11.0279 13.8341 10.9784 13.7053C10.8073 13.2597 10.6305 12.814 10.4538 12.3697L10.1723 11.6623C10.1326 11.5647 10.0916 11.4642 10.0648 11.3595C10.004 11.1204 10.1086 10.9917 10.2062 10.9251C10.267 10.8856 10.3405 10.8728 10.4183 10.8912C10.5286 10.9181 10.6347 11.0058 10.7012 11.1261C10.7437 11.2025 10.7804 11.2789 10.8087 11.3538L10.9403 11.6892C11.2316 12.432 11.5216 13.1734 11.8073 13.919C11.8709 14.0859 11.912 14.2501 11.9275 14.4071C11.9501 14.6235 11.8384 14.8047 11.6446 14.8669C11.4466 14.9306 11.1849 15.0085 10.9233 15.031C10.7479 15.048 10.5683 15.0523 10.39 15.0523ZM10.2316 14.4637C10.151 14.4637 10.069 14.4637 9.9884 14.468C9.81155 14.475 9.67582 14.5189 9.61499 14.5896C9.58669 14.6221 9.57676 14.659 9.58106 14.7028C9.60084 14.8712 9.81866 14.9009 9.94735 14.9037L9.98558 14.9052C10.291 14.9108 10.6064 14.9178 10.9106 14.891C11.1567 14.8683 11.3971 14.799 11.5994 14.7325C11.7281 14.6901 11.7988 14.5726 11.7833 14.4241C11.7677 14.2798 11.7309 14.1284 11.6715 13.9727C11.3858 13.2286 11.0959 12.4871 10.8045 11.7444L10.673 11.409C10.6461 11.3397 10.6122 11.269 10.5725 11.1982C10.5258 11.1133 10.4523 11.0511 10.3816 11.0341C10.3561 11.027 10.3179 11.0242 10.284 11.0468C10.1963 11.1063 10.1694 11.1968 10.2019 11.3255C10.226 11.4204 10.2642 11.5123 10.3038 11.6086L10.5853 12.3174C10.762 12.7616 10.9389 13.2073 11.1114 13.6544C11.1637 13.7888 11.2019 13.9289 11.2415 14.0774C11.2613 14.1482 11.2812 14.2232 11.3038 14.2995L11.3278 14.3802L11.2443 14.3916C11.1751 14.4014 11.1128 14.4099 11.0534 14.4199C10.9304 14.4382 10.8243 14.4552 10.7154 14.4594C10.5895 14.4651 10.4636 14.4651 10.3363 14.4637C10.3024 14.4637 10.267 14.4637 10.2316 14.4637Z" fill="black"></path>
<path d="M10.2359 14.584C10.1553 14.584 10.0733 14.5854 9.99127 14.5882C9.82435 14.5939 9.7324 14.635 9.70551 14.6675C9.70981 14.7708 9.90917 14.7792 9.94881 14.7806C10.2911 14.7877 10.6023 14.7934 10.8979 14.7665C11.1341 14.7453 11.3759 14.6745 11.5626 14.6137C11.6631 14.5812 11.6687 14.4863 11.6631 14.4326C11.6503 14.2996 11.6135 14.1539 11.5598 14.0124C11.2925 13.3135 11.0195 12.6173 10.7465 11.9226L10.5612 11.4487C10.5357 11.3822 10.5032 11.3171 10.4679 11.2535C10.4226 11.1714 10.3547 11.1502 10.3462 11.146C10.3279 11.1601 10.2925 11.1841 10.3194 11.2931C10.342 11.3822 10.3787 11.4685 10.4142 11.5562L10.697 12.2693C10.8752 12.715 11.052 13.1606 11.2231 13.6078C11.2755 13.7422 11.3137 13.8836 11.3561 14.0365C11.3759 14.1086 11.3972 14.1836 11.4198 14.2628L11.4848 14.4793L11.0675 14.5359C10.9417 14.5557 10.8314 14.5727 10.721 14.577C10.5923 14.5826 10.4623 14.5812 10.335 14.5826C10.3039 14.584 10.2698 14.584 10.2359 14.584Z" fill="black"></path>
<path d="M10.3831 14.8584C10.2416 14.8584 10.0973 14.8556 9.94882 14.8528C9.75359 14.8486 9.63905 14.782 9.63483 14.6703L9.63342 14.642L9.65039 14.6207C9.70129 14.5599 9.82435 14.5217 9.98838 14.516C10.0705 14.5132 10.1539 14.5118 10.2345 14.5118H10.4198C10.5188 14.5118 10.6192 14.5118 10.7182 14.5076C10.8243 14.5033 10.9318 14.4863 11.0563 14.4665L11.3915 14.4199L11.3505 14.284C11.3278 14.2048 11.3066 14.1284 11.2868 14.0562C11.2444 13.9035 11.2062 13.7648 11.1567 13.636C10.9855 13.1889 10.8088 12.7433 10.6306 12.2976L10.3476 11.5845C10.3095 11.4925 10.2727 11.4048 10.2501 11.3115C10.2161 11.1713 10.2642 11.1176 10.3039 11.0878L10.3448 11.0581L10.3873 11.085C10.4071 11.0936 10.482 11.1261 10.5315 11.218C10.5712 11.2888 10.6037 11.3553 10.6291 11.4204L10.8144 11.8943C11.0874 12.5904 11.3603 13.2866 11.6277 13.9855C11.6857 14.134 11.7224 14.2855 11.7352 14.4241C11.7493 14.5501 11.6928 14.6462 11.5853 14.6802C11.4127 14.7368 11.1553 14.8131 10.9049 14.8358C10.7366 14.8542 10.5626 14.8584 10.3831 14.8584ZM9.81723 14.6873C9.84694 14.6972 9.89362 14.707 9.95304 14.7085C10.2854 14.7156 10.5995 14.7212 10.895 14.6957C11.1298 14.6745 11.3773 14.6009 11.5428 14.5457H11.5442L11.0803 14.6095C10.953 14.6293 10.8427 14.6462 10.7282 14.6518C10.6263 14.6561 10.5245 14.6561 10.424 14.6561H10.2387C10.1595 14.6561 10.0775 14.6576 9.9969 14.6604C9.91199 14.6632 9.85406 14.6759 9.81723 14.6873ZM10.3873 11.2633C10.3887 11.2676 10.3887 11.2732 10.3901 11.2789C10.4113 11.3609 10.4439 11.4401 10.4792 11.5265L10.7649 12.2466C10.9431 12.6923 11.1199 13.138 11.2911 13.5865C11.3434 13.7223 11.383 13.8638 11.424 14.0124C11.4453 14.0931 11.4664 14.168 11.489 14.2458L11.5739 14.5274C11.5867 14.5132 11.5965 14.4877 11.5909 14.4425C11.5796 14.3166 11.5442 14.1779 11.4919 14.0407C11.2246 13.3417 10.9516 12.647 10.6787 11.9509L10.4934 11.477C10.4707 11.4176 10.441 11.3581 10.4042 11.2916C10.4 11.2803 10.3943 11.2704 10.3873 11.2633Z" fill="black"></path>
<path d="M15.3277 11.9155C16.7978 11.9155 17.9896 10.7234 17.9896 9.25276C17.9896 7.7822 16.7978 6.59004 15.3277 6.59004C13.8576 6.59004 12.6659 7.7822 12.6659 9.25276C12.6659 10.7234 13.8576 11.9155 15.3277 11.9155Z" fill="#E9E9E9"></path>
<path d="M15.3277 12.2989C13.6474 12.2989 12.2811 10.9321 12.2811 9.25128C12.2811 7.57049 13.6474 6.20374 15.3277 6.20374C17.008 6.20374 18.3743 7.57049 18.3743 9.25128C18.3743 10.9321 17.008 12.2989 15.3277 12.2989ZM15.3277 6.97483C14.0731 6.97483 13.0505 7.99635 13.0505 9.25269C13.0505 10.5091 14.0717 11.5306 15.3277 11.5306C16.5837 11.5306 17.6049 10.5091 17.6049 9.25269C17.6049 7.99635 16.5823 6.97483 15.3277 6.97483Z" fill="black"></path>
<path d="M15.3489 10.3678C15.9644 10.3678 16.4634 9.86856 16.4634 9.25284C16.4634 8.63708 15.9644 8.13792 15.3489 8.13792C14.7333 8.13792 14.2343 8.63708 14.2343 9.25284C14.2343 9.86856 14.7333 10.3678 15.3489 10.3678Z" fill="black"></path>
<path d="M5.74809 11.9155C7.21822 11.9155 8.41002 10.7234 8.41002 9.25276C8.41002 7.7822 7.21822 6.59004 5.74809 6.59004C4.27797 6.59004 3.08624 7.7822 3.08624 9.25276C3.08624 10.7234 4.27797 11.9155 5.74809 11.9155Z" fill="#E9E9E9"></path>
<path d="M5.74807 12.2989C4.06915 12.2989 2.70288 10.9321 2.70288 9.25128C2.70288 7.57049 4.06915 6.20374 5.74807 6.20374C7.42832 6.20374 8.79466 7.57049 8.79466 9.25128C8.79466 10.9321 7.42832 12.2989 5.74807 12.2989ZM5.74807 6.97483C4.49345 6.97483 3.47229 7.99635 3.47229 9.25269C3.47229 10.5091 4.49345 11.5306 5.74807 11.5306C7.00261 11.5306 8.02517 10.5091 8.02517 9.25269C8.02517 7.99635 7.00261 6.97483 5.74807 6.97483Z" fill="black"></path>
<path d="M5.76785 10.3678C6.38341 10.3678 6.88236 9.86856 6.88236 9.25284C6.88236 8.63708 6.38341 8.13792 5.76785 8.13792C5.1523 8.13792 4.65326 8.63708 4.65326 9.25284C4.65326 9.86856 5.1523 10.3678 5.76785 10.3678Z" fill="black"></path>
<path d="M10.5583 11.9155C12.0285 11.9155 13.2203 10.7234 13.2203 9.25276C13.2203 7.7822 12.0285 6.59004 10.5583 6.59004C9.08821 6.59004 7.89648 7.7822 7.89648 9.25276C7.89648 10.7234 9.08821 11.9155 10.5583 11.9155Z" fill="#E9E9E9"></path>
<path d="M10.5583 12.2989C8.87809 12.2989 7.51175 10.9321 7.51175 9.25128C7.51175 7.57049 8.87809 6.20374 10.5583 6.20374C12.2387 6.20374 13.6049 7.57049 13.6049 9.25128C13.6049 10.9321 12.2387 12.2989 10.5583 12.2989ZM10.5583 6.97483C9.3038 6.97483 8.28116 7.99635 8.28116 9.25269C8.28116 10.5091 9.3024 11.5306 10.5583 11.5306C11.8129 11.5306 12.8355 10.5091 12.8355 9.25269C12.8355 7.99635 11.8129 6.97483 10.5583 6.97483Z" fill="black"></path>
<path d="M10.5782 10.3678C11.1938 10.3678 11.6927 9.86856 11.6927 9.25284C11.6927 8.63708 11.1938 8.13792 10.5782 8.13792C9.96266 8.13792 9.46362 8.63708 9.46362 9.25284C9.46362 9.86856 9.96266 10.3678 10.5782 10.3678Z" fill="black"></path>
<path d="M10.7324 18.8074C9.19358 18.8074 8.2431 18.1085 7.71551 17.5227C7.14555 16.8889 6.93899 16.2508 6.93055 16.2239C6.86972 16.0301 6.97722 15.8235 7.17096 15.7613C7.36478 15.7004 7.57127 15.8066 7.6335 16.0004C7.6618 16.0867 8.33364 18.0703 10.7324 18.0703C13.0902 18.0703 13.4566 16.1334 13.4706 16.0513C13.5061 15.8518 13.6956 15.7174 13.895 15.7514C14.0944 15.7853 14.2302 15.9735 14.1963 16.1744C14.192 16.2013 14.0788 16.8522 13.5951 17.4987C13.1482 18.0944 12.2883 18.8074 10.7324 18.8074Z" fill="black"></path>
<path d="M10.7324 18.8795C9.16809 18.8795 8.19923 18.1679 7.66172 17.5708C7.09598 16.9411 6.88519 16.3158 6.8626 16.2465C6.78903 16.0144 6.91772 15.7668 7.14969 15.6932C7.38025 15.6196 7.62779 15.7484 7.70136 15.9791C7.72817 16.0611 8.38023 17.9994 10.7324 17.9994C13.0279 17.9994 13.3858 16.1191 13.3999 16.0399C13.4409 15.8022 13.6687 15.6409 13.9077 15.6805C14.1467 15.7215 14.308 15.9479 14.2683 16.1856C14.2641 16.2139 14.151 16.8789 13.6545 17.541C13.1962 18.1508 12.3179 18.8795 10.7324 18.8795ZM7.28268 15.8164C7.25297 15.8164 7.22326 15.8206 7.19355 15.8305C7.03796 15.88 6.95032 16.047 6.99981 16.2026C7.00825 16.2295 7.21333 16.8577 7.76922 17.4745C8.28688 18.0504 9.22039 18.7352 10.7324 18.7352C12.2571 18.7352 13.1 18.0377 13.5385 17.4533C14.0152 16.8181 14.1213 16.1884 14.1255 16.1615C14.1524 16.0017 14.0435 15.8489 13.8822 15.822C13.721 15.7951 13.5682 15.9041 13.5399 16.064C13.5243 16.1488 13.1453 18.1438 10.731 18.1438C8.27554 18.1438 7.59104 16.1106 7.56274 16.0243C7.5245 15.897 7.40856 15.8164 7.28268 15.8164Z" fill="black"></path>
<path d="M7.28266 15.9367C7.26421 15.9367 7.24724 15.9395 7.23027 15.9437C7.13692 15.9734 7.08603 16.0725 7.11574 16.1644C7.11855 16.1716 7.31519 16.7855 7.85974 17.3926C8.36043 17.95 9.26564 18.6136 10.7338 18.6136C12.209 18.6136 13.0208 17.9429 13.4437 17.3798C13.8793 16.7983 13.9967 16.2041 14.0094 16.1389C14.025 16.0442 13.9614 15.9551 13.8652 15.9381C13.7761 15.9239 13.6799 15.9876 13.6615 16.0824C13.646 16.1716 13.2542 18.2613 10.7338 18.2613C8.20765 18.2613 7.48062 16.1489 7.45091 16.0583C7.4255 15.9848 7.35615 15.9367 7.28266 15.9367Z" fill="black"></path>
<path d="M10.7324 18.6856C9.23735 18.6856 8.31517 18.0079 7.80463 17.4406C7.27986 16.8576 7.06916 16.2563 7.04648 16.1898C7.00403 16.0568 7.07619 15.9167 7.20629 15.8757C7.33928 15.8361 7.4765 15.9111 7.51746 16.0384C7.54717 16.1261 8.25865 18.1904 10.731 18.1904C13.1977 18.1904 13.5725 16.1587 13.5881 16.0724C13.6121 15.9408 13.7422 15.8489 13.8723 15.8687C14.0095 15.8927 14.0987 16.0172 14.0774 16.1516C14.0548 16.2662 13.926 16.852 13.4975 17.425C13.0675 17.9994 12.2373 18.6856 10.7324 18.6856ZM7.28268 16.0087C7.27134 16.0087 7.26149 16.0102 7.25156 16.013C7.19785 16.03 7.16814 16.088 7.1851 16.1432C7.20629 16.2082 7.40855 16.7826 7.91355 17.3443C8.40431 17.8904 9.29255 18.5413 10.7338 18.5413C12.1793 18.5413 12.9742 17.8862 13.3858 17.3373C13.7959 16.7912 13.9176 16.2323 13.9388 16.1261C13.9473 16.0724 13.9091 16.02 13.8526 16.0101C13.8045 16.0045 13.7436 16.0384 13.7323 16.0978C13.7167 16.1884 13.3222 18.3347 10.7338 18.3347C8.15818 18.3347 7.41285 16.1743 7.38314 16.0823C7.36759 16.0384 7.32654 16.0087 7.28268 16.0087Z" fill="black"></path>
</g>
<defs>
<clipPath id="clip0_7583_1148">
<rect width="24" height="24" fill="white"></rect>
</clipPath>
</defs>
</svg>